HIERARCHY
ROOT reference
{
  OFFSET 0 0 0
  CHANNELS 6 Xposition Yposition Zposition Zrotation Xrotation Yrotation
  JOINT Hips
  {
    OFFSET 346.547 88.4868 223.89
    CHANNELS 3 Zrotation Xrotation Yrotation
    JOINT RightUpLeg
    {
      OFFSET -9.27468 -1.51611 -0.00175448
      CHANNELS 3 Zrotation Xrotation Yrotation
      JOINT RightLeg
      {
        OFFSET -0.00464511 -41.8738 0.0184652
        CHANNELS 3 Zrotation Xrotation Yrotation
        JOINT RightFoot
        {
          OFFSET -0.626239 -42.3044 -0.171503
          CHANNELS 3 Zrotation Xrotation Yrotation
          End Site
          {
            OFFSET 0 -7.69 17.5
          }
        }
      }
    }
    JOINT LeftUpLeg
    {
      OFFSET 9.30083 -1.68454 -0.0454748
      CHANNELS 3 Zrotation Xrotation Yrotation
      JOINT LeftLeg
      {
        OFFSET 0.0692631 -41.8513 -0.097029
        CHANNELS 3 Zrotation Xrotation Yrotation
        JOINT LeftFoot
        {
          OFFSET 0.520945 -41.523 0.446349
          CHANNELS 3 Zrotation Xrotation Yrotation
          End Site
          {
            OFFSET 0 -7.69 17.5
          }
        }
      }
    }
    JOINT Spine
    {
      OFFSET 0.0770133 14.2992 0.0590021
      CHANNELS 3 Zrotation Xrotation Yrotation
      JOINT Spine1
      {
        OFFSET 0.0471461 9.71665 0.020973
        CHANNELS 3 Zrotation Xrotation Yrotation
        JOINT Spine2
        {
          OFFSET 0.051283 10.117 0.000913966
          CHANNELS 3 Zrotation Xrotation Yrotation
          JOINT Spine3
          {
            OFFSET 0.0447963 9.71088 0.00221408
            CHANNELS 3 Zrotation Xrotation Yrotation
            JOINT Neck
            {
              OFFSET 0.115655 10.3749 0.0448519
              CHANNELS 3 Zrotation Xrotation Yrotation
              JOINT Head
              {
                OFFSET 0.0937003 9.47807 0.0215077
                CHANNELS 3 Zrotation Xrotation Yrotation
                End Site
                {
                  OFFSET 0 15.95 0
                }
              }
            }
            JOINT RightShoulder
            {
              OFFSET -3.17023 6.91072 -0.0050072
              CHANNELS 3 Zrotation Xrotation Yrotation
              JOINT RightArm
              {
                OFFSET -12.7573 0.00694711 0.0313031
                CHANNELS 3 Zrotation Xrotation Yrotation
                JOINT RightForeArm
                {
                  OFFSET -26.5152 -0.0619338 -0.0331286
                  CHANNELS 3 Zrotation Xrotation Yrotation
                  JOINT RightHand
                  {
                    OFFSET -25.9971 0.0398378 -0.0269922
                    CHANNELS 3 Zrotation Xrotation Yrotation
                    JOINT RightHandThumb1
                    {
                      OFFSET -2.48905 0.190105 3.12053
                      CHANNELS 3 Zrotation Xrotation Yrotation
                      JOINT RightHandThumb2
                      {
                        OFFSET -3.68274 0 0
                        CHANNELS 3 Zrotation Xrotation Yrotation
                        JOINT RightHandThumb3
                        {
                          OFFSET -2.55832 0 0
                          CHANNELS 3 Zrotation Xrotation Yrotation
                          End Site
                          {
                            OFFSET -2.194 0 0
                          }
                        }
                      }
                    }
                    JOINT RightInHandIndex
                    {
                      OFFSET -3.22368 0.508421 1.97842
                      CHANNELS 3 Zrotation Xrotation Yrotation
                      JOINT RightHandIndex1
                      {
                        OFFSET -5.21684 -0.091368 0.999158
                        CHANNELS 3 Zrotation Xrotation Yrotation
                        JOINT RightHandIndex2
                        {
                          OFFSET -3.61937 0 0
                          CHANNELS 3 Zrotation Xrotation Yrotation
                          JOINT RightHandIndex3
                          {
                            OFFSET -2.0521 0 0
                            CHANNELS 3 Zrotation Xrotation Yrotation
                            End Site
                            {
                              OFFSET -1.805 0 0
                            }
                          }
                        }
                      }
                    }
                    JOINT RightInHandMiddle
                    {
                      OFFSET -3.38211 0.517263 0.756737
                      CHANNELS 3 Zrotation Xrotation Yrotation
                      JOINT RightHandMiddle1
                      {
                        OFFSET -5.17411 -0.084 0.313895
                        CHANNELS 3 Zrotation Xrotation Yrotation
                        JOINT RightHandMiddle2
                        {
                          OFFSET -3.94947 0 0
                          CHANNELS 3 Zrotation Xrotation Yrotation
                          JOINT RightHandMiddle3
                          {
                            OFFSET -2.47579 0 0
                            CHANNELS 3 Zrotation Xrotation Yrotation
                            End Site
                            {
                              OFFSET -1.975 0 0
                            }
                          }
                        }
                      }
                    }
                    JOINT RightInHandRing
                    {
                      OFFSET -3.36516 0.537895 -0.128947
                      CHANNELS 3 Zrotation Xrotation Yrotation
                      JOINT RightHandRing1
                      {
                        OFFSET -4.63474 -0.022105 -0.478947
                        CHANNELS 3 Zrotation Xrotation Yrotation
                        JOINT RightHandRing2
                        {
                          OFFSET -3.44238 0 0
                          CHANNELS 3 Zrotation Xrotation Yrotation
                          JOINT RightHandRing3
                          {
                            OFFSET -2.3881 0 0
                            CHANNELS 3 Zrotation Xrotation Yrotation
                            End Site
                            {
                              OFFSET -1.857 0 0
                            }
                          }
                        }
                      }
                    }
                    JOINT RightInHandPinky
                    {
                      OFFSET -3.16105 0.469368 -1.20179
                      CHANNELS 3 Zrotation Xrotation Yrotation
                      JOINT RightHandPinky1
                      {
                        OFFSET -4.14105 -0.022105 -1.09053
                        CHANNELS 3 Zrotation Xrotation Yrotation
                        JOINT RightHandPinky2
                        {
                          OFFSET -2.75653 0 0
                          CHANNELS 3 Zrotation Xrotation Yrotation
                          JOINT RightHandPinky3
                          {
                            OFFSET -1.74189 0 0
                            CHANNELS 3 Zrotation Xrotation Yrotation
                            End Site
                            {
                              OFFSET -1.645 0 0
                            }
                          }
                        }
                      }
                    }
                  }
                }
              }
            }
            JOINT LeftShoulder
            {
              OFFSET 3.25178 6.92057 -0.0384945
              CHANNELS 3 Zrotation Xrotation Yrotation
              JOINT LeftArm
              {
                OFFSET 12.8462 -0.0383255 -0.0637898
                CHANNELS 3 Zrotation Xrotation Yrotation
                JOINT LeftForeArm
                {
                  OFFSET 26.4888 -0.0608964 -0.0673835
                  CHANNELS 3 Zrotation Xrotation Yrotation
                  JOINT LeftHand
                  {
                    OFFSET 25.9932 -0.0402352 -0.0274148
                    CHANNELS 3 Zrotation Xrotation Yrotation
                    JOINT LeftHandThumb1
                    {
                      OFFSET 2.48905 0.190105 3.12053
                      CHANNELS 3 Zrotation Xrotation Yrotation
                      JOINT LeftHandThumb2
                      {
                        OFFSET 3.68274 0 0
                        CHANNELS 3 Zrotation Xrotation Yrotation
                        JOINT LeftHandThumb3
                        {
                          OFFSET 2.55832 0 0
                          CHANNELS 3 Zrotation Xrotation Yrotation
                          End Site
                          {
                            OFFSET 2.194 0 0
                          }
                        }
                      }
                    }
                    JOINT LeftInHandIndex
                    {
                      OFFSET 3.22368 0.508421 1.97842
                      CHANNELS 3 Zrotation Xrotation Yrotation
                      JOINT LeftHandIndex1
                      {
                        OFFSET 5.21684 -0.091368 0.999158
                        CHANNELS 3 Zrotation Xrotation Yrotation
                        JOINT LeftHandIndex2
                        {
                          OFFSET 3.61937 0 0
                          CHANNELS 3 Zrotation Xrotation Yrotation
                          JOINT LeftHandIndex3
                          {
                            OFFSET 2.0521 0 0
                            CHANNELS 3 Zrotation Xrotation Yrotation
                            End Site
                            {
                              OFFSET 1.805 0 0
                            }
                          }
                        }
                      }
                    }
                    JOINT LeftInHandMiddle
                    {
                      OFFSET 3.38211 0.517263 0.756737
                      CHANNELS 3 Zrotation Xrotation Yrotation
                      JOINT LeftHandMiddle1
                      {
                        OFFSET 5.17411 -0.084 0.313895
                        CHANNELS 3 Zrotation Xrotation Yrotation
                        JOINT LeftHandMiddle2
                        {
                          OFFSET 3.94947 0 0
                          CHANNELS 3 Zrotation Xrotation Yrotation
                          JOINT LeftHandMiddle3
                          {
                            OFFSET 2.47579 0 0
                            CHANNELS 3 Zrotation Xrotation Yrotation
                            End Site
                            {
                              OFFSET 1.975 0 0
                            }
                          }
                        }
                      }
                    }
                    JOINT LeftInHandRing
                    {
                      OFFSET 3.36516 0.537895 -0.128947
                      CHANNELS 3 Zrotation Xrotation Yrotation
                      JOINT LeftHandRing1
                      {
                        OFFSET 4.63474 -0.022105 -0.478947
                        CHANNELS 3 Zrotation Xrotation Yrotation
                        JOINT LeftHandRing2
                        {
                          OFFSET 3.44238 0 0
                          CHANNELS 3 Zrotation Xrotation Yrotation
                          JOINT LeftHandRing3
                          {
                            OFFSET 2.3881 0 0
                            CHANNELS 3 Zrotation Xrotation Yrotation
                            End Site
                            {
                              OFFSET 1.857 0 0
                            }
                          }
                        }
                      }
                    }
                    JOINT LeftInHandPinky
                    {
                      OFFSET 3.16105 0.469368 -1.20179
                      CHANNELS 3 Zrotation Xrotation Yrotation
                      JOINT LeftHandPinky1
                      {
                        OFFSET 4.14105 -0.022105 -1.09053
                        CHANNELS 3 Zrotation Xrotation Yrotation
                        JOINT LeftHandPinky2
                        {
                          OFFSET 2.75653 0 0
                          CHANNELS 3 Zrotation Xrotation Yrotation
                          JOINT LeftHandPinky3
                          {
                            OFFSET 1.74189 0 0
                            CHANNELS 3 Zrotation Xrotation Yrotation
                            End Site
                            {
                              OFFSET 1.645 0 0
                            }
                          }
                        }
                      }
                    }
                  }
                }
              }
            }
          }
        }
      }
    }
  }
}
MOTION
Frames: 2
Frame Time: 0.00833333
9.000000000000000000e+02 0.000000000000000000e+00 0.000000000000000000e+00 0.000000000000000000e+00 0.000000000000000000e+00 0.000000000000000000e+00 4.849458937190025409e+00 4.531938383273058868e+00 -3.481312081166465333e+01 1.472889366822802337e+01 -1.900488675172983477e+01 9.288444797489084692e+00 -1.271955451951171545e+00 6.839421916435495241e+00 5.470269300183900896e+00 5.273649506538783172e+00 -7.156855569494853242e+00 1.187102509072618339e+01 1.653504110213553346e+01 -4.591015039406400433e+00 1.039817315403854359e+01 -8.843695620557689097e+00 7.294806598027010480e+00 1.110499464836985162e+01 7.557401268211658696e-01 -4.421909303337938191e+00 1.536655635947451692e+01 -1.828425218280101072e+00 -2.916015729638058662e+00 -1.824072428395234979e+01 -6.384258778464626527e-01 -2.303504497972405363e-01 -4.615146135170392405e+00 -9.854142945328137060e-01 -2.634099097578357918e-01 -7.243692917785264029e+00 -3.955175824027631348e-01 -2.898020360409383697e-02 1.787854693094210745e+00 -1.389792416263239572e+00 -5.189630590956972878e-01 2.622837974932689775e+01 -6.631158064543980046e+00 -2.391822455277710979e+00 1.837750363478400573e+01 7.135348219095145883e-02 7.682838960935518990e+00 -1.254202237290911270e+01 1.069330020491194588e+01 -2.291074000252690013e+01 -2.880057411263901201e+01 1.180112927526569422e+01 -5.042813805405740091e+00 2.932606700030390101e+01 -3.823982898270255504e+00 -2.967065870302882935e+00 5.880888903455389283e+00 0.000000000000000000e+00 0.000000000000000000e+00 0.000000000000000000e+00 -5.495961515432813263e-15 5.717607104743262025e-16 0.000000000000000000e+00 -3.831321966907526159e-15 -7.957600290927324847e-16 0.000000000000000000e+00 -1.274295680263039957e-15 3.096497676952459880e-16 -1.743634236437716080e-15 0.000000000000000000e+00 0.000000000000000000e+00 0.000000000000000000e+00 0.000000000000000000e+00 -5.683296710299206732e-15 -1.979162313017023910e-14 0.000000000000000000e+00 3.807009807327392446e-16 -5.829672617721013430e-15 -1.274295680263039957e-15 3.096497676952459880e-16 -1.743634236437716080e-15 0.000000000000000000e+00 2.703843292650963494e-15 5.363891135841033276e-15 0.000000000000000000e+00 -2.351672548013349405e-15 -8.582644481062763025e-15 0.000000000000000000e+00 -2.707169101109290814e-16 -3.714169260133472404e-15 -1.274295680263039957e-15 3.096497676952459880e-16 -1.743634236437716080e-15 0.000000000000000000e+00 0.000000000000000000e+00 0.000000000000000000e+00 0.000000000000000000e+00 -3.261870807161742895e-15 -7.397210262881395811e-15 0.000000000000000000e+00 -1.191674041311478058e-16 -9.774388915517057356e-15 -1.274295680263039957e-15 3.096497676952459880e-16 -1.743634236437716080e-15 0.000000000000000000e+00 0.000000000000000000e+00 0.000000000000000000e+00 0.000000000000000000e+00 -2.340735169203741089e-15 -1.002651493753711196e-14 0.000000000000000000e+00 -1.134130819019688471e-15 -2.972615036677932665e-15 2.623767580361104468e+00 -2.031266369863201859e+00 -5.380471426066512741e+00 2.147987098197433653e+01 6.518370382884939751e+00 -1.787736421506559736e+01 7.045334987980345964e+00 2.369471054033196111e+01 3.216444216444546100e+01 -3.964942637079695853e+00 9.368862145494346594e-01 4.514599867100206332e+00 0.000000000000000000e+00 0.000000000000000000e+00 0.000000000000000000e+00 -1.137836835978577954e-15 -8.532150572932653825e-16 0.000000000000000000e+00 -1.104037292872617249e-15 2.502264534334141571e-15 0.000000000000000000e+00 -3.722966784831224506e-16 -1.023696050844405682e-16 7.887285782117407134e-18 0.000000000000000000e+00 0.000000000000000000e+00 0.000000000000000000e+00 0.000000000000000000e+00 1.135217292059663985e-15 3.913072025634126559e-15 0.000000000000000000e+00 -6.946509323567272665e-16 5.775151358974752713e-16 -3.722966784831224506e-16 -1.023696050844405682e-16 7.887285782117407134e-18 0.000000000000000000e+00 -2.585731000145565179e-16 -8.438561648589277775e-16 0.000000000000000000e+00 -1.869789633329350399e-15 3.125556265484943299e-15 0.000000000000000000e+00 -2.211997865131667236e-15 6.223753324232478968e-16 -3.722966784831224506e-16 -1.023696050844405682e-16 7.887285782117407134e-18 0.000000000000000000e+00 0.000000000000000000e+00 0.000000000000000000e+00 0.000000000000000000e+00 -2.652501507251054564e-15 -2.065532143179928945e-15 0.000000000000000000e+00 7.801862401571201373e-16 7.181529268171021552e-16 -3.722966784831224506e-16 -1.023696050844405682e-16 7.887285782117407134e-18 0.000000000000000000e+00 0.000000000000000000e+00 0.000000000000000000e+00 0.000000000000000000e+00 1.160389797565577558e-15 -5.285120722749371010e-16 0.000000000000000000e+00 1.052994235239936191e-15 2.848292026609768903e-15
9.000000000000000000e+02 0.000000000000000000e+00 0.000000000000000000e+00 0.000000000000000000e+00 0.000000000000000000e+00 0.000000000000000000e+00 4.867497642573773931e+00 4.555505306190302584e+00 -3.471693691540598792e+01 1.418671182560026622e+01 -1.905874782908281873e+01 8.929992749512607020e+00 -1.170150915642946821e+00 6.836270191148283715e+00 5.330342671259519882e+00 5.521558419563010744e+00 -7.599061368484671064e+00 1.140658571376006591e+01 1.637137020791279696e+01 -4.868025755782727337e+00 1.031973518991357430e+01 -8.671711522182828702e+00 7.331742040473977262e+00 1.101824482362208713e+01 7.047179747609914058e-01 -4.304811761728032593e+00 1.526551812859776724e+01 -1.737953612767251466e+00 -2.622061297284922876e+00 -1.833837407262588570e+01 -6.101841318813304715e-01 -1.461069469881420002e-01 -4.635800014181466366e+00 -9.423283398844918279e-01 -1.230064173381596043e-01 -7.255568670818309585e+00 -3.927707839753861174e-01 -1.529777782762238234e-02 1.763609301658292772e+00 -1.402096282680309169e+00 -4.292795910992793229e-01 2.610095296631147832e+01 -6.532035437286281443e+00 -2.306923353665771614e+00 1.798343964297729158e+01 8.071609602070083100e-02 7.654508753976507762e+00 -1.238594690436991108e+01 1.134009105610118162e+01 -2.267600558513188957e+01 -2.863670358156318230e+01 1.239157633412188098e+01 -4.855894465359789081e+00 2.794608287942114444e+01 -3.789493496263713901e+00 -3.178857266948049709e+00 5.509188108677941287e+00 0.000000000000000000e+00 0.000000000000000000e+00 0.000000000000000000e+00 -5.595433971660119479e-15 5.555521491982349399e-16 0.000000000000000000e+00 -3.892287839366309199e-15 -9.116080951382744820e-16 0.000000000000000000e+00 -1.286563132864859975e-15 3.106233336794451168e-16 -1.723902207805487238e-15 0.000000000000000000e+00 0.000000000000000000e+00 0.000000000000000000e+00 0.000000000000000000e+00 -5.845633477507510011e-15 -2.032089919151480174e-14 0.000000000000000000e+00 3.266615039282217655e-16 -5.821314822588354237e-15 -1.286563132864859975e-15 3.106233336794451168e-16 -1.723902207805487238e-15 0.000000000000000000e+00 2.769577782262197817e-15 5.468828988795399484e-15 0.000000000000000000e+00 -2.244664555930424008e-15 -8.847152912786810171e-15 0.000000000000000000e+00 -1.914411705601515877e-16 -3.714870812534480919e-15 -1.286563132864859975e-15 3.106233336794451168e-16 -1.723902207805487238e-15 0.000000000000000000e+00 0.000000000000000000e+00 0.000000000000000000e+00 0.000000000000000000e+00 -3.358148560436925809e-15 -7.688967445815949254e-15 0.000000000000000000e+00 -1.207855973558981033e-16 -9.909590038274153932e-15 -1.286563132864859975e-15 3.106233336794451168e-16 -1.723902207805487238e-15 0.000000000000000000e+00 0.000000000000000000e+00 0.000000000000000000e+00 0.000000000000000000e+00 -2.418557849381346871e-15 -1.031457011302239895e-14 0.000000000000000000e+00 -1.166920133104934054e-15 -3.008196696381540835e-15 2.945394150717621784e+00 -2.071087737232762294e+00 -5.279657467615160193e+00 2.129371496497177674e+01 7.065883636582877436e+00 -1.757427740226292201e+01 5.978407344960624314e+00 2.319093166067727196e+01 3.266495737850244296e+01 -3.898214020514300771e+00 9.218434589525723588e-01 4.682177379027385733e+00 0.000000000000000000e+00 0.000000000000000000e+00 0.000000000000000000e+00 -1.015248625939050882e-15 -8.442301039937075276e-16 0.000000000000000000e+00 -1.052624324544983989e-15 2.536680411989713844e-15 0.000000000000000000e+00 -3.743276828866398434e-16 -7.160497564299088399e-17 -1.420646269265105860e-18 0.000000000000000000e+00 0.000000000000000000e+00 0.000000000000000000e+00 0.000000000000000000e+00 1.089957757811506060e-15 4.048137173777703474e-15 0.000000000000000000e+00 -7.897317975271880789e-16 6.924644625510856463e-16 -3.743276828866398434e-16 -7.160497564299088399e-17 -1.420646269265105860e-18 0.000000000000000000e+00 -2.893331453892307603e-16 -8.464066527127669219e-16 0.000000000000000000e+00 -1.963872924879736149e-15 3.129473568721723967e-15 0.000000000000000000e+00 -2.248239728410910382e-15 6.932395053180311378e-16 -3.743276828866398434e-16 -7.160497564299088399e-17 -1.420646269265105860e-18 0.000000000000000000e+00 0.000000000000000000e+00 0.000000000000000000e+00 0.000000000000000000e+00 -2.699305761778979998e-15 -2.070021313545426298e-15 0.000000000000000000e+00 8.339914201216407836e-16 6.707327888634051110e-16 -3.743276828866398434e-16 -7.160497564299088399e-17 -1.420646269265105860e-18 0.000000000000000000e+00 0.000000000000000000e+00 0.000000000000000000e+00 0.000000000000000000e+00 1.120332528579189074e-15 -5.549671403115611524e-16 0.000000000000000000e+00 1.102783292212140261e-15 2.968797131434633256e-15
